<svg xmlns="http://www.w3.org/2000/svg" viewBox="0 0 22.8 22.26"><defs><style>.cls-1{fill:#211915;}</style></defs><title>Recurso 3</title><g id="Capa_2" data-name="Capa 2"><g id="Capa_1-2" data-name="Capa 1"><path class="cls-1" d="M22.8,5.45,20.24,16.54a.23.23,0,0,1-.23.18L6.66,16.66a.24.24,0,0,1-.23-.19L4.1,2.44a.22.22,0,0,0-.22-.19H.23A.23.23,0,0,1,0,2V.23A.23.23,0,0,1,.23,0h5a.22.22,0,0,1,.22.19L6.21,5a.22.22,0,0,0,.22.19H22.57A.23.23,0,0,1,22.8,5.45Z"/><circle class="cls-1" cx="8.17" cy="20.22" r="2.03"/><circle class="cls-1" cx="18.57" cy="20.22" r="2.03"/></g></g></svg>