<svg xmlns="http://www.w3.org/2000/svg" viewBox="0 0 234.08 40.29"><title>Recurso 2</title><g id="Capa_2" data-name="Capa 2"><g id="Capa_1-2" data-name="Capa 1"><path d="M19.82,40.29a20.8,20.8,0,0,1-8.17-1.55A18.26,18.26,0,0,1,5.4,34.48a19.3,19.3,0,0,1-4-6.3A20.73,20.73,0,0,1,0,20.52,20.48,20.48,0,0,1,1.41,12.9a19.54,19.54,0,0,1,4-6.28,17.91,17.91,0,0,1,6.25-4.23A21.31,21.31,0,0,1,19.87.87,21,21,0,0,1,28,2.39a18.34,18.34,0,0,1,6.24,4.23,19.28,19.28,0,0,1,4,6.28,20.48,20.48,0,0,1,1.41,7.62,20.73,20.73,0,0,1-1.41,7.66,19.06,19.06,0,0,1-4,6.3A18.71,18.71,0,0,1,28,38.74,20.81,20.81,0,0,1,19.82,40.29Zm0-5.76a13.49,13.49,0,0,0,5.32-1,12.38,12.38,0,0,0,4.26-3,13.54,13.54,0,0,0,2.8-4.45,15.33,15.33,0,0,0,1-5.57,15.34,15.34,0,0,0-1-5.53,13,13,0,0,0-7.06-7.36,13.16,13.16,0,0,0-5.32-1.06A13.09,13.09,0,0,0,7.47,15a14.94,14.94,0,0,0-1,5.53,14.92,14.92,0,0,0,1,5.57,13.76,13.76,0,0,0,2.82,4.45,12.38,12.38,0,0,0,4.26,3A13.39,13.39,0,0,0,19.82,34.53Z"/><path d="M40.07,39.58,49,27.15a12.93,12.93,0,0,1-4-2.63,11.94,11.94,0,0,1-2.66-3.83,11.61,11.61,0,0,1-1-4.67V11.89h6.25V16a6.31,6.31,0,0,0,.81,3.17,7.09,7.09,0,0,0,2.2,2.39,8,8,0,0,0,3,1.28l7.71-11h6.9L59.67,23.78a12.22,12.22,0,0,1,4.56,2.61,11.88,11.88,0,0,1,2.91,4,12.33,12.33,0,0,1,1,5v4.18H62V35.4A6.7,6.7,0,0,0,61,31.93a7.24,7.24,0,0,0-2.52-2.55,7.52,7.52,0,0,0-3.61-1.09L47,39.58Z"/><path d="M74.82,8A3.84,3.84,0,0,1,72,6.84,3.84,3.84,0,0,1,70.8,4,3.87,3.87,0,0,1,72,1.19a4,4,0,0,1,5.67,0A3.91,3.91,0,0,1,78.84,4a3.89,3.89,0,0,1-1.17,2.82A3.83,3.83,0,0,1,74.82,8ZM71.73,39.58V11.89H78V39.58Z"/><path d="M81.94,39.58V23a11.7,11.7,0,0,1,1.52-5.89,11.12,11.12,0,0,1,4.39-4.29A15.29,15.29,0,0,1,98.5,11.73a10.92,10.92,0,0,1,3.34,1.55,10.12,10.12,0,0,1,2.63,2.63h0a10.16,10.16,0,0,1,2.64-2.63,10.71,10.71,0,0,1,3.36-1.55,14.36,14.36,0,0,1,3.78-.49,13.91,13.91,0,0,1,6.92,1.6,11.2,11.2,0,0,1,4.37,4.29A11.8,11.8,0,0,1,127.11,23V39.58h-6.19V23a6.21,6.21,0,0,0-.89-3.26,6.86,6.86,0,0,0-2.37-2.33,6.45,6.45,0,0,0-3.36-.87,6.66,6.66,0,0,0-3.37.87,6.76,6.76,0,0,0-2.42,2.33,6.21,6.21,0,0,0-.89,3.26V39.58h-6.19V23a6,6,0,0,0-.93-3.26,7,7,0,0,0-2.41-2.33,6.85,6.85,0,0,0-6.68,0A6.75,6.75,0,0,0,89,19.76,6.12,6.12,0,0,0,88.13,23V39.58Z"/><path d="M144.27,40.23a14.88,14.88,0,0,1-7.6-1.92,14.3,14.3,0,0,1-7.17-12.57,14.27,14.27,0,0,1,7.17-12.57,15.83,15.83,0,0,1,15.15,0A14.23,14.23,0,0,1,159,25.74a14.26,14.26,0,0,1-7.16,12.57A14.8,14.8,0,0,1,144.27,40.23Zm0-5.32a7.92,7.92,0,0,0,7.38-4.53,10.89,10.89,0,0,0,0-9.29,8.45,8.45,0,0,0-11.86-3.31,8.4,8.4,0,0,0-2.93,3.31,10.13,10.13,0,0,0-1.06,4.65,10.06,10.06,0,0,0,1.06,4.64,8.33,8.33,0,0,0,2.93,3.31A8,8,0,0,0,144.27,34.91Z"/><path d="M161.15,39.58V19.76a7.8,7.8,0,0,1,2.1-5.78A7.82,7.82,0,0,1,169,11.89h6.68v5.32h-5.54a2.73,2.73,0,0,0-2,.76A2.86,2.86,0,0,0,167.4,20V39.58Z"/><path d="M190.53,40.23a14.88,14.88,0,0,1-7.6-1.92,14.3,14.3,0,0,1-7.17-12.57,14.27,14.27,0,0,1,7.17-12.57,15.83,15.83,0,0,1,15.15,0,14.27,14.27,0,0,1,7.17,12.57,14.3,14.3,0,0,1-7.17,12.57A14.8,14.8,0,0,1,190.53,40.23Zm0-5.32A8,8,0,0,0,195,33.69a8.13,8.13,0,0,0,2.94-3.31,11,11,0,0,0,0-9.29A8.2,8.2,0,0,0,195,17.78a8.78,8.78,0,0,0-8.93,0,8.4,8.4,0,0,0-2.93,3.31,10.13,10.13,0,0,0-1.06,4.65,10.06,10.06,0,0,0,1.06,4.64,8.33,8.33,0,0,0,2.93,3.31A8,8,0,0,0,190.53,34.91Z"/><path d="M207.63,39.58v-16a12.49,12.49,0,0,1,1.63-6.38,11.6,11.6,0,0,1,4.62-4.4,16.07,16.07,0,0,1,14,0,11.65,11.65,0,0,1,4.59,4.4,12.49,12.49,0,0,1,1.63,6.38v16h-6.19V23.67a7,7,0,0,0-1-3.72,6.92,6.92,0,0,0-2.58-2.49,7,7,0,0,0-3.5-.9,6.94,6.94,0,0,0-3.45.9A6.7,6.7,0,0,0,214.83,20a7.1,7.1,0,0,0-1,3.72V39.58Z"/></g></g></svg>