<svg id="Capa_1" data-name="Capa 1" xmlns="http://www.w3.org/2000/svg" viewBox="0 0 234.08 40.29"><defs><style>.cls-1{fill:#fff;}</style></defs><title>002Mesa de trabajo 1</title><g id="Capa_2" data-name="Capa 2"><g id="Capa_1-2" data-name="Capa 1-2"><path class="cls-1" d="M19.82,40.29a20.79,20.79,0,0,1-8.17-1.55A18.24,18.24,0,0,1,5.4,34.48a19.3,19.3,0,0,1-4-6.3A20.67,20.67,0,0,1,0,20.52,20.48,20.48,0,0,1,1.41,12.9a19.66,19.66,0,0,1,4-6.28,17.89,17.89,0,0,1,6.25-4.23A21.36,21.36,0,0,1,19.87.87,21,21,0,0,1,28,2.39a18.22,18.22,0,0,1,6.24,4.23,19.21,19.21,0,0,1,4,6.28,20.48,20.48,0,0,1,1.41,7.62,20.68,20.68,0,0,1-1.41,7.66,19.14,19.14,0,0,1-4,6.3A18.68,18.68,0,0,1,28,38.74,20.84,20.84,0,0,1,19.82,40.29Zm0-5.76a13.49,13.49,0,0,0,5.32-1,12.4,12.4,0,0,0,4.26-3,13.46,13.46,0,0,0,2.8-4.45,15.16,15.16,0,0,0,1-5.57,15.37,15.37,0,0,0-1-5.53,13,13,0,0,0-7.06-7.36,13.13,13.13,0,0,0-5.32-1.06A13.09,13.09,0,0,0,7.47,15a14.92,14.92,0,0,0-1,5.53,14.76,14.76,0,0,0,1,5.57,13.68,13.68,0,0,0,2.82,4.45,12.4,12.4,0,0,0,4.26,3A13.4,13.4,0,0,0,19.82,34.53Z"/><path class="cls-1" d="M40.07,39.58,49,27.15a12.86,12.86,0,0,1-4-2.63,12,12,0,0,1-2.66-3.83,11.73,11.73,0,0,1-1-4.67V11.89h6.25V16a6.39,6.39,0,0,0,.81,3.17,7.09,7.09,0,0,0,2.2,2.39,8,8,0,0,0,3,1.28l7.71-11h6.9L59.67,23.78a12.23,12.23,0,0,1,4.56,2.61,11.88,11.88,0,0,1,2.91,4,12.27,12.27,0,0,1,1,5v4.18H62V35.4a6.73,6.73,0,0,0-1-3.47,7.24,7.24,0,0,0-2.52-2.55,7.54,7.54,0,0,0-3.61-1.09L47,39.58Z"/><path class="cls-1" d="M74.82,8A3.83,3.83,0,0,1,72,6.84,3.86,3.86,0,0,1,70.8,4,3.87,3.87,0,0,1,72,1.19a4,4,0,0,1,5.66,0h0A3.9,3.9,0,0,1,78.84,4a3.88,3.88,0,0,1-1.17,2.82A3.83,3.83,0,0,1,74.82,8ZM71.73,39.58V11.89H78V39.58Z"/><path class="cls-1" d="M81.94,39.58V23a11.68,11.68,0,0,1,1.52-5.89,11.11,11.11,0,0,1,4.39-4.29A15.32,15.32,0,0,1,98.5,11.73a10.94,10.94,0,0,1,3.34,1.55,10.27,10.27,0,0,1,2.63,2.63h0a10.31,10.31,0,0,1,2.64-2.63,10.71,10.71,0,0,1,3.36-1.55,14.16,14.16,0,0,1,3.78-.49,14,14,0,0,1,6.92,1.6,11.19,11.19,0,0,1,4.37,4.29A11.76,11.76,0,0,1,127.11,23V39.58h-6.19V23a6.22,6.22,0,0,0-.89-3.26,6.86,6.86,0,0,0-2.37-2.33,6.49,6.49,0,0,0-3.36-.87,6.73,6.73,0,0,0-5.79,3.2,6.22,6.22,0,0,0-.89,3.26V39.58h-6.19V23a6,6,0,0,0-.93-3.26,7,7,0,0,0-2.41-2.33A6.72,6.72,0,0,0,89,19.76,6.07,6.07,0,0,0,88.13,23V39.58Z"/><path class="cls-1" d="M144.27,40.23a14.87,14.87,0,0,1-7.6-1.92,14.3,14.3,0,0,1-7.17-12.57,14.28,14.28,0,0,1,7.17-12.57,15.85,15.85,0,0,1,15.15,0A14.23,14.23,0,0,1,159,25.74a14.27,14.27,0,0,1-7.16,12.57A14.77,14.77,0,0,1,144.27,40.23Zm0-5.32a7.91,7.91,0,0,0,7.38-4.53,10.87,10.87,0,0,0,0-9.29,8.46,8.46,0,0,0-11.41-3.57l-.45.26a8.36,8.36,0,0,0-2.93,3.31,10.13,10.13,0,0,0-1.06,4.65,10.09,10.09,0,0,0,1.06,4.64,8.29,8.29,0,0,0,2.93,3.31A8,8,0,0,0,144.27,34.91Z"/><path class="cls-1" d="M161.15,39.58V19.76a7.82,7.82,0,0,1,2.1-5.78A7.82,7.82,0,0,1,169,11.89h6.68v5.32h-5.54a2.76,2.76,0,0,0-2,.76,2.85,2.85,0,0,0-.74,2V39.58Z"/><path class="cls-1" d="M190.53,40.23a14.87,14.87,0,0,1-7.6-1.92,14.3,14.3,0,0,1-7.17-12.57,14.28,14.28,0,0,1,7.17-12.57,15.85,15.85,0,0,1,15.15,0,14.28,14.28,0,0,1,7.17,12.57,14.3,14.3,0,0,1-7.17,12.57A14.79,14.79,0,0,1,190.53,40.23Zm0-5.32A8,8,0,0,0,195,33.69a8.1,8.1,0,0,0,2.94-3.31,11,11,0,0,0,0-9.29A8.25,8.25,0,0,0,195,17.78a8.77,8.77,0,0,0-8.93,0,8.36,8.36,0,0,0-2.93,3.31,10.13,10.13,0,0,0-1.06,4.65,10.09,10.09,0,0,0,1.06,4.64,8.29,8.29,0,0,0,2.93,3.31A8,8,0,0,0,190.53,34.91Z"/><path class="cls-1" d="M207.63,39.58v-16a12.51,12.51,0,0,1,1.63-6.38,11.64,11.64,0,0,1,4.62-4.4,16.07,16.07,0,0,1,14,0,11.63,11.63,0,0,1,4.59,4.4,12.51,12.51,0,0,1,1.63,6.38v16h-6.19V23.67a7,7,0,0,0-7.08-7.11,6.84,6.84,0,0,0-3.45.9A6.69,6.69,0,0,0,214.83,20a7,7,0,0,0-1,3.72V39.58Z"/></g></g></svg>