<svg xmlns="http://www.w3.org/2000/svg" viewBox="0 0 26.7 34.47"><title>pin</title><g id="Capa_2" data-name="Capa 2"><g id="Capa_1-2" data-name="Capa 1"><path d="M14,0a15.91,15.91,0,0,1,1.83.1C22,.8,25.9,5,26.6,9.82c.32,2.19,0,7.57-3.06,11.37a9.59,9.59,0,0,1-7.36,3.71,6.26,6.26,0,0,1-4.54-1.73c-.19-.2-.35-.43-.55-.68l-.09.26c-1.29,5-1.45,6.06-2.76,8.37a25.55,25.55,0,0,1-2.12,3.12c-.08.11-.16.23-.3.23s-.25-.21-.27-.37a26.48,26.48,0,0,1-.24-4.54c.08-2,.33-2.67,3-13.4a.73.73,0,0,0-.06-.45,7.55,7.55,0,0,1-.15-5,3.91,3.91,0,0,1,3.54-3,2.5,2.5,0,0,1,2.5,2.07c.43,1.87-.77,4.32-1.7,7.94a3,3,0,0,0,3.14,3.82,4.42,4.42,0,0,0,2.6-.9c2.78-2,3.89-6.83,3.72-10.24-.26-4.89-4.18-7-8.13-7a10.64,10.64,0,0,0-4.43.95C3.87,6.81,2.57,13.53,5,16.62c.31.38.55.62.44,1-.15.62-.31,1.24-.48,1.85a.63.63,0,0,1-.62.51A1.15,1.15,0,0,1,4,19.93a5.59,5.59,0,0,1-2.25-1.71c-2.07-2.58-2.62-7.68.17-12A14.23,14.23,0,0,1,14,0Z"/></g></g></svg>