<svg xmlns="http://www.w3.org/2000/svg" viewBox="0 0 32.5 26.34"><title>tw</title><g id="Capa_2" data-name="Capa 2"><g id="Capa_1-2" data-name="Capa 1"><path d="M32.5,3.15a9.56,9.56,0,0,1-.75,1,12.63,12.63,0,0,1-2.43,2.3l-.11.21a19.38,19.38,0,0,1-.15,3,20.07,20.07,0,0,1-1.75,5.93,19.57,19.57,0,0,1-3.64,5.23,18,18,0,0,1-9.18,5.11,21,21,0,0,1-3.71.43h-.6a18.67,18.67,0,0,1-10-2.87L0,23.37a13.82,13.82,0,0,0,1.56.08,13.58,13.58,0,0,0,5.1-1,13.2,13.2,0,0,0,3.18-1.85A6.59,6.59,0,0,1,3.69,16a6.43,6.43,0,0,0,1.24.12,7.45,7.45,0,0,0,1.61-.19l.1-.05a6.5,6.5,0,0,1-4.29-3,6.4,6.4,0,0,1-1-3.53,6.57,6.57,0,0,0,3,.79,6.63,6.63,0,0,1-2.7-4A6.53,6.53,0,0,1,2.4,1.23a18.83,18.83,0,0,0,13.65,7c0-.27-.07-.5-.1-.73a6.47,6.47,0,0,1,1-4.35,6.44,6.44,0,0,1,4.53-3A7.22,7.22,0,0,1,22.7,0a6.42,6.42,0,0,1,4.6,2,.35.35,0,0,0,.24.11h.11A13.43,13.43,0,0,0,31.53.58l.09,0a6.64,6.64,0,0,1-2.83,3.62,12.91,12.91,0,0,0,3.71-1Z"/></g></g></svg>